<?xml version="1.0" standalone="no"?>
<!DOCTYPE svg PUBLIC "-//W3C//DTD SVG 20010904//EN"
 "http://www.w3.org/TR/2001/REC-SVG-20010904/DTD/svg10.dtd">
<svg version="1.0" xmlns="http://www.w3.org/2000/svg"
 width="150.000000pt" height="150.000000pt" viewBox="0 0 150.000000 150.000000"
 preserveAspectRatio="xMidYMid meet">

<g transform="translate(0.000000,150.000000) scale(0.100000,-0.100000)"
fill="#000000" stroke="none">
<path d="M1148 1322 c-87 -48 -157 -90 -158 -93 0 -3 32 -20 70 -39 39 -19 70
-37 70 -42 0 -5 -244 -470 -255 -486 -1 -1 -87 52 -191 118 l-188 120 -178
-177 c-118 -118 -174 -181 -168 -187 7 -7 67 46 179 158 l169 169 191 -123
c106 -67 194 -121 196 -119 1 2 64 118 139 258 74 139 137 255 139 257 2 2 34
-12 71 -32 37 -20 69 -34 72 -31 2 2 3 79 2 171 l-3 166 -157 -88z"/>
<path d="M1090 515 l0 -435 135 0 135 0 0 435 0 435 -135 0 -135 0 0 -435z
m240 0 l0 -406 -102 3 -103 3 -3 403 -2 402 105 0 105 0 0 -405z"/>
<path d="M464 631 c-2 -2 -4 -127 -4 -278 l0 -273 140 0 140 0 -2 276 -3 275
-133 2 c-74 1 -136 0 -138 -2z m241 -273 l0 -243 -105 0 -105 0 -3 235 c-1
129 -1 239 2 245 2 6 44 9 107 8 l104 -1 0 -244z"/>
<path d="M772 273 l3 -188 138 -3 137 -3 0 191 0 190 -140 0 -140 0 2 -187z
m248 -3 l0 -160 -105 0 -105 0 0 160 0 160 105 0 105 0 0 -160z"/>
<path d="M150 220 l0 -140 135 0 135 0 0 140 0 140 -135 0 -135 0 0 -140z
m240 0 l0 -110 -105 0 -105 0 0 110 0 110 105 0 105 0 0 -110z"/>
</g>
</svg>
